<?xml version="1.0" standalone="no"?>
<!DOCTYPE svg PUBLIC "-//W3C//DTD SVG 20010904//EN"
 "http://www.w3.org/TR/2001/REC-SVG-20010904/DTD/svg10.dtd">
<svg version="1.0" xmlns="http://www.w3.org/2000/svg"
 width="1500.000000pt" height="400.000000pt" viewBox="0 0 1500.000000 400.000000"
 preserveAspectRatio="xMidYMid meet">

<g transform="translate(0.000000,400.000000) scale(0.100000,-0.100000)"
fill="#000000" stroke="none">
<path d="M2180 3246 c0 -9 7 -16 16 -16 9 0 14 5 12 12 -6 18 -28 21 -28 4z"/>
<path d="M2066 3243 c-11 -11 -6 -23 9 -23 8 0 15 4 15 9 0 13 -16 22 -24 14z"/>
<path d="M2292 3169 c2 -6 8 -10 13 -10 5 0 11 4 13 10 2 6 -4 11 -13 11 -9 0
-15 -5 -13 -11z"/>
<path d="M1967 3164 c-8 -8 1 -24 14 -24 5 0 9 7 9 15 0 15 -12 20 -23 9z"/>
<path d="M2094 3150 c-37 -15 -64 -59 -64 -104 0 -115 127 -164 205 -80 20 21
25 38 25 76 0 43 -4 54 -34 84 -27 27 -42 34 -72 33 -22 0 -49 -4 -60 -9z
m106 -15 c37 -19 50 -43 50 -92 0 -48 -22 -81 -67 -100 -70 -29 -143 23 -143
101 1 85 82 131 160 91z"/>
<path d="M2089 3109 l-24 -20 30 17 c39 24 40 24 28 24 -6 0 -21 -9 -34 -21z"/>
<path d="M2190 3116 c0 -2 8 -10 18 -17 15 -13 16 -12 3 4 -13 16 -21 21 -21
13z"/>
<path d="M2221 3075 c1 -19 18 -51 18 -35 0 8 -4 22 -9 30 -5 8 -9 11 -9 5z"/>
<path d="M2060 3010 c0 -15 61 -60 81 -60 25 0 60 18 76 39 23 30 13 30 -16 0
-18 -17 -40 -29 -56 -29 -16 0 -38 12 -56 29 -16 16 -29 26 -29 21z"/>
<path d="M2332 3049 c2 -6 8 -10 13 -10 5 0 11 4 13 10 2 6 -4 11 -13 11 -9 0
-15 -5 -13 -11z"/>
<path d="M1927 3043 c-12 -11 -8 -23 8 -23 8 0 15 7 15 15 0 16 -12 20 -23 8z"/>
<path d="M2367 2806 l-47 -42 30 -29 31 -29 45 45 45 45 -28 26 -28 26 -48
-42z"/>
<path d="M1883 2811 c-13 -11 -23 -23 -23 -28 0 -5 18 -26 40 -48 l40 -39 22
22 c22 20 27 20 91 9 52 -9 78 -8 114 2 48 12 113 54 113 72 0 5 -17 -3 -37
-20 -55 -43 -112 -55 -188 -41 -52 10 -69 19 -101 51 -21 21 -41 39 -44 39 -3
-1 -15 -9 -27 -19z"/>
<path d="M1820 2610 c0 -13 -12 -27 -32 -38 -58 -31 -78 -57 -78 -102 0 -46
-24 -76 -67 -86 -46 -10 -50 -12 -20 -13 39 -1 86 25 91 52 18 96 20 100 65
127 29 16 47 35 52 53 4 15 3 27 -2 27 -5 0 -9 -9 -9 -20z"/>
<path d="M1420 2505 c0 -8 7 -15 15 -15 8 0 15 7 15 15 0 8 -7 15 -15 15 -8 0
-15 -7 -15 -15z"/>
<path d="M1241 2486 c-9 -11 2 -21 56 -52 84 -48 150 -114 189 -188 16 -31 32
-56 35 -56 4 0 12 7 20 16 11 13 -7 34 -127 155 -76 76 -144 139 -150 139 -6
0 -17 -6 -23 -14z"/>
<path d="M1157 2359 c-45 -47 -52 -69 -24 -69 20 0 110 97 103 109 -13 20 -31
11 -79 -40z"/>
<path d="M1533 2388 c2 -7 10 -13 17 -13 7 0 15 6 18 13 2 7 -5 12 -18 12 -13
0 -20 -5 -17 -12z"/>
<path d="M1239 2353 c-13 -16 -12 -17 4 -4 9 7 17 15 17 17 0 8 -8 3 -21 -13z"/>
<path d="M3045 2291 c-7 -12 12 -24 25 -16 11 7 4 25 -10 25 -5 0 -11 -4 -15
-9z"/>
<path d="M3170 2276 c0 -9 7 -16 16 -16 17 0 14 22 -4 28 -7 2 -12 -3 -12 -12z"/>
<path d="M1162 2222 c-16 -16 -43 -39 -61 -51 -34 -24 -40 -48 -15 -58 17 -6
124 91 124 114 0 25 -20 23 -48 -5z"/>
<path d="M2932 2229 c2 -6 8 -10 13 -10 5 0 11 4 13 10 2 6 -4 11 -13 11 -9 0
-15 -5 -13 -11z"/>
<path d="M1379 2183 l-24 -28 28 24 c25 23 32 31 24 31 -2 0 -14 -12 -28 -27z"/>
<path d="M3036 2191 c-108 -73 -49 -235 78 -218 29 4 49 15 68 36 49 55 49
107 0 162 -36 41 -103 50 -146 20z m121 -11 c69 -42 63 -151 -10 -186 -103
-49 -205 72 -136 160 38 49 93 58 146 26z"/>
<path d="M3064 2170 c-12 -5 -29 -19 -38 -32 -51 -72 33 -165 112 -124 60 31
60 121 1 151 -31 17 -44 18 -75 5z"/>
<path d="M3260 2194 c0 -9 5 -14 12 -12 18 6 21 28 4 28 -9 0 -16 -7 -16 -16z"/>
<path d="M1382 2137 c-43 -44 -50 -56 -39 -65 10 -9 24 0 66 42 30 30 50 59
47 65 -11 18 -19 14 -74 -42z"/>
<path d="M1217 2112 c-56 -57 -70 -82 -44 -82 16 0 117 101 117 117 0 28 -20
18 -73 -35z"/>
<path d="M3282 2069 c2 -6 8 -10 13 -10 5 0 11 4 13 10 2 6 -4 11 -13 11 -9 0
-15 -5 -13 -11z"/>
<path d="M1064 2018 c-5 -13 -8 -74 -7 -135 l1 -113 -41 -11 c-81 -22 -178 11
-254 84 l-42 40 -40 -17 c-54 -25 -119 -91 -147 -151 -43 -92 -58 -184 -51
-329 13 -265 90 -453 232 -569 105 -84 235 -112 337 -73 38 15 53 16 79 7 122
-42 286 29 396 171 54 71 130 201 161 277 97 237 49 496 -114 614 -78 57 -134
72 -264 72 -63 0 -135 -4 -159 -8 l-44 -8 7 70 c3 38 3 77 0 85 -9 24 -41 19
-50 -6z m-276 -258 c101 -44 249 -90 288 -90 33 0 30 -15 -3 -18 -16 -1 -56
-9 -89 -17 -53 -13 -70 -13 -127 -2 -40 9 -71 11 -81 5 -9 -5 -16 -5 -16 0 0
5 -21 3 -47 -3 -27 -7 -61 -10 -77 -8 -21 3 -26 1 -20 -9 6 -10 4 -10 -9 1
-13 10 -17 10 -17 1 0 -10 -3 -10 -15 0 -20 17 -19 33 5 79 19 38 85 101 105
101 5 0 52 -18 103 -40z m380 -107 c-10 -2 -28 -2 -40 0 -13 2 -5 4 17 4 22 1
32 -1 23 -4z"/>
<path d="M3351 1929 l-45 -50 32 -31 c31 -31 31 -32 52 -13 26 24 37 11 45
-55 9 -60 13 -72 14 -34 1 17 -5 52 -13 77 -24 80 8 72 54 -15 62 -115 10
-257 -121 -332 l-34 -20 38 43 c48 53 77 115 76 161 -1 29 -3 26 -13 -21 -23
-108 -108 -189 -249 -237 -108 -37 -184 -82 -217 -128 -14 -19 -37 -51 -52
-71 -16 -20 -33 -53 -38 -73 -6 -21 -17 -41 -25 -44 -10 -4 -15 -20 -15 -51
l0 -45 70 0 70 0 0 50 c0 47 -2 50 -25 50 -22 0 -25 4 -24 38 2 102 30 127
289 258 202 102 264 151 294 234 30 82 6 205 -48 250 -10 8 -14 20 -10 32 4
14 -3 29 -22 49 -15 16 -30 29 -33 28 -3 -1 -26 -23 -50 -50z m-161 -543 c0
-3 -43 -27 -95 -54 -103 -53 -128 -56 -42 -5 71 43 137 71 137 59z m-268 -246
c-3 -42 -7 -50 -24 -50 -15 0 -18 4 -12 23 7 23 33 77 37 77 1 0 0 -22 -1 -50z"/>
<path d="M3235 1960 c-4 -6 -3 -16 3 -22 6 -6 12 -6 17 2 4 6 3 16 -3 22 -6 6
-12 6 -17 -2z"/>
<path d="M2525 1476 c-42 -18 -82 -68 -95 -116 -32 -119 87 -235 205 -200 73
22 125 88 125 160 0 93 -62 161 -153 167 -30 2 -65 -2 -82 -11z m129 -10 c18
-8 46 -31 62 -51 23 -30 28 -48 28 -91 0 -115 -115 -188 -220 -138 -49 23 -77
68 -81 128 -5 67 20 113 77 143 50 26 87 29 134 9z"/>
<path d="M2543 1435 c-18 -8 -42 -29 -53 -47 -56 -92 11 -197 116 -185 106 12
148 132 72 207 -16 17 -37 30 -46 30 -12 0 -10 -4 7 -13 85 -44 86 -172 0
-207 -72 -30 -148 15 -156 91 -6 63 22 104 84 123 26 8 39 15 28 15 -11 0 -35
-6 -52 -14z"/>
<path d="M2094 1121 c-46 -28 -64 -60 -64 -109 0 -78 55 -135 130 -135 76 0
130 57 130 137 0 38 -6 52 -33 82 -28 31 -41 37 -83 41 -37 3 -57 -1 -80 -16z
m126 -6 c16 -9 36 -29 45 -45 43 -84 -13 -180 -105 -180 -92 0 -148 96 -105
180 29 55 105 76 165 45z"/>
<path d="M2688 1099 c-52 -35 -58 -43 -58 -74 l0 -35 65 0 65 0 0 75 c0 41 -3
75 -7 74 -5 0 -34 -19 -65 -40z"/>
<path d="M2502 978 c-7 -7 -12 -36 -12 -65 l0 -53 40 0 40 0 0 65 c0 65 0 65
-28 65 -15 0 -33 -5 -40 -12z"/>
<path d="M2360 890 l-45 -30 65 0 c50 0 61 3 52 12 -7 7 -12 20 -12 30 0 24
-6 22 -60 -12z"/>
<path d="M1596 839 c-17 -14 -26 -30 -26 -50 0 -24 -4 -29 -24 -29 -13 0 -34
-9 -47 -20 -24 -19 -21 -19 786 -20 774 0 808 1 785 18 -23 16 -76 17 -653 22
l-628 5 48 36 c26 20 57 41 68 47 15 9 -15 11 -131 12 -138 0 -154 -2 -178
-21z"/>
</g>
</svg>
