<?xml version="1.0" standalone="no"?>
<!DOCTYPE svg PUBLIC "-//W3C//DTD SVG 20010904//EN"
 "http://www.w3.org/TR/2001/REC-SVG-20010904/DTD/svg10.dtd">
<svg version="1.0" xmlns="http://www.w3.org/2000/svg"
 width="1000.000000pt" height="1000.000000pt" viewBox="0 0 1000.000000 1000.000000"
 preserveAspectRatio="xMidYMid meet">

<g transform="translate(0.000000,1000.000000) scale(0.100000,-0.100000)"
fill="#000000" stroke="none">
<path d="M5572 8918 c-17 -17 -15 -53 3 -68 20 -17 61 -5 68 19 11 42 -42 78
-71 49z"/>
<path d="M5212 8884 c-37 -26 -23 -74 23 -74 44 0 63 60 26 80 -25 13 -22 13
-49 -6z"/>
<path d="M5912 8688 c-26 -26 -7 -78 28 -78 19 0 50 30 50 48 0 32 -54 54 -78
30z"/>
<path d="M4902 8638 c-7 -7 -12 -21 -12 -33 0 -46 48 -60 74 -23 20 28 20 33
0 52 -18 19 -45 21 -62 4z"/>
<path d="M5335 8613 c-158 -57 -251 -190 -249 -358 0 -100 28 -175 89 -243
165 -184 461 -161 594 46 119 187 46 439 -156 538 -74 37 -202 44 -278 17z
m263 -48 c74 -34 144 -109 172 -183 29 -76 25 -205 -9 -270 -34 -66 -97 -128
-160 -159 -49 -24 -68 -28 -146 -28 -106 0 -157 19 -230 86 -85 79 -124 195
-104 307 41 221 272 341 477 247z"/>
<path d="M5367 8526 c-137 -51 -217 -189 -188 -322 30 -134 137 -223 272 -224
114 0 206 56 255 157 68 139 12 303 -129 374 -53 28 -157 35 -210 15z m194
-34 c118 -48 181 -209 129 -330 -59 -137 -221 -198 -351 -131 -49 24 -113 99
-127 147 -45 151 49 309 196 331 50 7 110 1 153 -17z"/>
<path d="M6050 8300 c-15 -29 -3 -59 26 -66 30 -8 54 11 54 40 0 46 -59 64
-80 26z"/>
<path d="M4770 8255 c-7 -8 -10 -25 -6 -39 11 -45 71 -45 82 0 8 30 -11 54
-41 54 -12 0 -28 -7 -35 -15z"/>
<path d="M6146 7524 l-139 -136 91 -91 92 -92 136 137 137 136 -89 90 -89 91
-139 -135z"/>
<path d="M4625 7520 l-90 -90 138 -138 138 -137 69 73 c38 39 72 72 76 72 3 0
74 -12 158 -26 320 -55 550 -5 716 158 61 59 62 61 43 79 -18 18 -20 18 -81
-41 -152 -145 -367 -196 -628 -150 -71 12 -141 23 -157 24 -21 1 -58 32 -160
134 l-132 132 -90 -90z"/>
<path d="M4463 6958 c-11 -12 -26 -42 -32 -64 -15 -58 -52 -90 -158 -140 -140
-68 -165 -106 -188 -290 -16 -131 -30 -163 -93 -210 -46 -35 -114 -54 -197
-54 -53 0 -55 -1 -55 -26 l0 -27 93 5 c103 6 161 26 219 76 50 44 75 109 88
231 18 165 29 182 166 247 135 65 191 138 182 241 l-3 35 -22 -24z"/>
<path d="M3198 6618 c-26 -21 -30 -53 -10 -78 22 -28 70 -30 89 -4 40 54 -26
123 -79 82z"/>
<path d="M2640 6535 c-35 -35 -62 -66 -59 -67 2 -2 58 -29 124 -61 236 -115
433 -269 561 -437 64 -85 163 -250 200 -334 15 -36 31 -66 34 -66 3 0 32 25
65 55 l60 54 -460 461 -460 460 -65 -65z"/>
<path d="M2535 6279 c-11 -4 -85 -72 -164 -152 -116 -117 -143 -150 -143 -173
0 -35 36 -67 66 -58 25 7 314 291 322 317 7 22 -18 63 -43 69 -10 3 -28 2 -38
-3z"/>
<path d="M3562 6254 c-42 -29 -18 -104 35 -104 49 0 72 76 31 104 -12 9 -27
16 -33 16 -6 0 -21 -7 -33 -16z"/>
<path d="M2584 6047 c-146 -166 -149 -174 -23 -50 l124 123 143 -11 c79 -6
146 -9 148 -7 2 3 -53 10 -124 17 -70 7 -140 14 -157 17 -27 4 -37 -4 -111
-89z"/>
<path d="M3123 5955 c0 -22 2 -30 4 -17 2 12 2 30 0 40 -3 9 -5 -1 -4 -23z"/>
<path d="M8270 5920 c-15 -29 -3 -59 26 -66 30 -8 54 11 54 40 0 46 -59 64
-80 26z"/>
<path d="M3136 5781 l5 -124 -118 -120 -118 -120 123 108 c68 59 126 113 128
120 3 6 -2 68 -10 136 l-15 124 5 -124z"/>
<path d="M8666 5884 c-30 -30 -13 -74 29 -74 12 0 26 5 33 12 7 7 12 21 12 33
0 42 -44 59 -74 29z"/>
<path d="M2395 5699 c-104 -104 -187 -168 -274 -207 l-62 -28 25 -23 c14 -13
23 -28 20 -33 -8 -13 55 -78 75 -78 24 0 371 351 371 375 0 12 -15 35 -33 53
l-33 32 -89 -91z"/>
<path d="M7917 5753 c-11 -11 -8 -58 5 -71 33 -33 91 16 68 57 -10 20 -58 30
-73 14z"/>
<path d="M8942 5648 c-33 -33 16 -91 57 -68 39 20 21 80 -24 80 -12 0 -26 -5
-33 -12z"/>
<path d="M8292 5629 c-70 -27 -160 -111 -197 -186 -27 -53 -30 -67 -30 -158 0
-93 2 -105 32 -166 39 -79 102 -140 181 -177 50 -24 70 -27 157 -27 91 0 105
3 158 30 77 39 159 126 187 202 30 78 31 188 2 262 -42 108 -107 175 -210 217
-76 31 -202 32 -280 3z m279 -38 c74 -35 125 -85 161 -159 29 -59 33 -76 33
-152 0 -71 -4 -94 -26 -141 -51 -108 -156 -183 -275 -195 -49 -5 -77 -2 -135
16 -63 19 -81 30 -135 84 -54 54 -65 72 -84 135 -55 180 24 344 199 418 73 31
191 28 262 -6z"/>
<path d="M8380 5550 c-58 -12 -87 -27 -131 -67 -144 -130 -109 -368 66 -449
137 -64 312 4 373 145 22 53 20 156 -5 212 -51 114 -185 185 -303 159z"/>
<path d="M3072 5437 c-160 -160 -174 -184 -134 -220 40 -36 60 -24 219 136
161 161 175 184 135 220 -40 36 -60 24 -220 -136z"/>
<path d="M2538 5353 c-118 -117 -178 -184 -178 -198 0 -12 13 -34 29 -49 23
-22 33 -26 47 -18 11 6 100 92 199 192 l179 182 -37 34 c-20 19 -42 34 -49 34
-6 0 -92 -80 -190 -177z"/>
<path d="M9020 5240 c-14 -26 -4 -57 20 -65 44 -14 80 41 48 73 -19 19 -56 14
-68 -8z"/>
<path d="M2113 5125 c-45 -31 -54 -82 -58 -329 -2 -127 0 -262 5 -301 6 -38
12 -88 15 -110 2 -22 7 -50 11 -62 7 -27 -10 -37 -120 -68 -133 -38 -197 -44
-321 -32 -57 6 -158 41 -180 63 -8 9 -15 13 -15 9 0 -3 -12 2 -27 13 -16 10
-39 22 -53 25 -32 8 -138 76 -199 128 -25 21 -71 67 -101 103 -30 36 -62 66
-70 66 -28 0 -167 -67 -241 -116 -283 -186 -455 -527 -500 -989 -15 -154 -12
-459 6 -664 8 -95 17 -183 20 -195 2 -11 7 -37 9 -56 14 -99 90 -400 118 -467
6 -15 12 -30 12 -33 4 -22 30 -70 38 -70 5 0 7 -4 4 -9 -7 -11 44 -136 89
-218 220 -400 540 -666 930 -771 87 -23 118 -27 240 -27 116 1 149 4 195 22
245 92 267 96 349 63 167 -66 468 -47 666 43 61 27 191 101 205 117 3 3 31 25
64 49 308 229 683 794 864 1301 54 153 106 411 116 580 6 104 -9 316 -30 429
-74 405 -317 738 -661 910 -301 150 -701 180 -1153 87 l-113 -23 7 234 c7 226
6 235 -14 267 -29 49 -67 59 -107 31z m-1069 -795 c127 -66 307 -143 461 -197
133 -46 325 -103 351 -103 11 0 24 -3 28 -7 3 -4 12 -8 19 -9 97 -20 227 -43
315 -55 90 -13 115 -17 122 -19 3 -1 17 -1 33 0 29 2 37 -17 12 -26 -8 -4 -12
-10 -9 -16 3 -5 14 -2 25 8 10 9 16 20 13 25 -3 5 18 8 47 6 37 -1 54 -7 56
-17 3 -9 1 -11 -4 -5 -9 12 -33 18 -33 9 0 -4 8 -13 18 -21 9 -8 11 -11 3 -7
-27 14 -86 12 -102 -2 -14 -13 -18 -13 -28 0 -10 11 -8 16 6 25 14 8 9 9 -19
4 -25 -4 -44 -1 -55 8 -16 13 -17 12 -4 -3 7 -10 19 -18 27 -18 7 0 16 -5 19
-11 4 -5 -10 -3 -30 5 -44 19 -48 19 -40 7 3 -5 1 -12 -4 -16 -6 -3 -8 -13 -5
-23 5 -14 4 -14 -4 -2 -7 9 -7 18 -1 26 6 8 3 13 -11 17 -22 6 -37 -8 -18 -17
7 -3 0 -2 -17 1 -46 10 -70 9 -68 -2 1 -7 -13 -9 -35 -7 -35 4 -36 4 -22 -14
9 -10 10 -15 3 -10 -19 11 -39 -4 -22 -16 11 -8 11 -9 -1 -5 -8 2 -14 11 -12
21 3 19 -9 21 -27 4 -10 -11 -12 -10 -9 2 2 9 -3 14 -12 12 -10 -1 -9 2 4 13
11 8 15 15 9 15 -15 0 -36 -27 -29 -39 3 -5 -1 -12 -10 -15 -10 -4 -18 1 -21
13 -3 11 -12 22 -20 26 -13 4 -13 3 -4 -8 9 -11 7 -17 -6 -28 -17 -13 -17 -13
-3 4 13 18 12 19 -15 17 -17 -1 -32 -1 -35 0 -20 7 -39 7 -34 -1 3 -5 11 -6
17 -3 7 4 8 3 4 -1 -4 -5 -22 -10 -40 -11 -18 -1 -36 -3 -42 -4 -24 -6 -46 1
-39 12 5 7 3 8 -5 4 -7 -5 -16 -18 -21 -30 -4 -13 -14 -23 -22 -23 -40 -3 -66
-8 -63 -13 2 -3 19 -5 38 -4 26 1 34 -2 31 -11 -7 -17 -56 -9 -101 16 -19 11
-38 17 -44 14 -5 -4 -9 -2 -9 3 0 8 -6 10 -50 14 -11 1 -20 6 -20 10 0 4 -12
8 -26 8 -17 0 -23 -4 -19 -12 4 -7 -5 0 -19 15 -22 23 -26 25 -27 10 0 -12 -2
-13 -6 -5 -4 10 -9 8 -20 -8 -12 -16 -18 -18 -29 -9 -7 6 -12 14 -10 18 3 4 1
13 -5 21 -5 10 -9 10 -9 3 0 -6 -9 -10 -19 -8 -15 3 -18 0 -14 -12 5 -12 2
-15 -9 -11 -8 4 -21 2 -29 -3 -10 -7 -6 -9 16 -7 17 1 39 -3 50 -10 17 -10 13
-11 -23 -6 -28 4 -48 1 -60 -8 -15 -12 -16 -11 -3 5 13 16 12 19 -7 24 -12 3
-20 9 -17 13 3 4 -2 13 -9 19 -10 9 -16 9 -21 1 -4 -6 -2 -9 3 -8 20 6 12 -13
-15 -35 -15 -13 -44 -24 -63 -25 l-35 -1 29 9 c16 5 33 7 37 4 4 -2 11 1 15 7
12 19 -19 29 -38 12 -19 -17 -54 -10 -42 9 5 8 0 9 -14 6 -12 -4 -20 -3 -17 2
2 4 -4 15 -14 24 -15 13 -18 14 -18 1 0 -8 4 -12 8 -9 4 2 10 0 13 -5 7 -10
-22 -24 -34 -16 -5 3 -12 0 -15 -6 -5 -7 1 -10 16 -9 13 1 27 1 32 0 7 -2 22
-6 33 -9 3 0 2 -6 -1 -11 -5 -8 -11 -7 -21 1 -17 14 -18 6 -3 -24 10 -21 10
-21 -5 -3 -9 11 -16 24 -16 29 0 5 -6 5 -13 -2 -8 -6 -23 -9 -35 -6 -12 2 -24
0 -27 -6 -4 -5 4 -9 17 -10 13 0 17 -3 10 -6 -10 -4 -10 -8 0 -21 7 -10 -2 -4
-18 11 -26 23 -33 25 -42 14 -7 -8 -9 -16 -6 -20 3 -3 -2 -4 -13 -2 -10 2 -26
4 -36 4 -10 1 -16 5 -12 10 3 6 14 8 24 6 11 -2 27 3 38 11 17 13 17 14 -2 11
-11 -1 -25 -6 -31 -9 -6 -4 -20 -1 -30 7 -18 14 -18 14 6 16 14 1 30 0 35 -1
6 -1 6 2 2 7 -5 4 -10 6 -11 3 -2 -3 -10 1 -18 8 -13 10 -17 10 -22 -3 -7 -20
-46 -20 -46 1 0 8 -4 12 -10 9 -18 -11 -11 -24 18 -31 37 -9 43 -14 36 -25 -4
-6 -11 -6 -20 2 -17 14 -18 6 -3 -24 9 -20 9 -21 -4 -4 -11 14 -16 15 -21 5
-3 -7 -3 -3 -1 8 6 24 -14 37 -42 28 -16 -5 -16 -4 -3 6 13 10 13 11 -1 7 -9
-3 -27 2 -40 10 -12 9 -19 12 -16 6 4 -6 -2 -18 -13 -28 -11 -10 -20 -24 -20
-32 0 -16 -22 -17 -39 0 -11 10 -12 9 -6 -2 6 -11 4 -13 -9 -8 -10 4 -27 7
-38 7 -13 0 -18 5 -15 14 4 10 1 13 -9 9 -11 -4 -12 -9 -3 -19 9 -11 7 -14
-12 -14 -20 0 -21 -2 -9 -11 13 -9 13 -10 0 -6 -8 2 -17 14 -18 26 -2 13 0 21
5 18 4 -3 9 18 9 47 5 171 191 425 375 511 30 13 57 25 60 25 4 0 59 -27 123
-60z m2051 -330 c-3 -5 -15 -15 -26 -20 -15 -8 -19 -8 -17 2 2 7 8 16 13 20
15 11 37 10 30 -2z m-101 -32 c-3 -4 -11 -5 -19 -1 -21 7 -19 12 4 10 11 0 18
-5 15 -9z m-148 -27 c-4 -6 -14 -7 -23 -4 -15 6 -14 7 3 13 22 9 29 6 20 -9z
m41 13 c-3 -3 -12 -4 -19 -1 -8 3 -5 6 6 6 11 1 17 -2 13 -5z m-170 -29 c-8
-9 -14 -10 -19 -2 -9 16 0 27 17 21 11 -5 12 -9 2 -19z m-55 8 c-6 -3 -9 -10
-6 -16 5 -9 4 -9 -5 -1 -7 6 -23 9 -37 6 -19 -3 -22 -7 -12 -13 9 -6 9 -9 1
-9 -6 0 -15 5 -18 10 -4 6 -11 7 -17 4 -7 -4 -8 -2 -4 4 10 16 -6 15 -24 0
-12 -11 -12 -10 -3 2 8 11 31 16 75 17 35 0 57 -2 50 -4z m-447 -53 c3 -6 -1
-7 -9 -4 -18 7 -21 14 -7 14 6 0 13 -4 16 -10z m-910 -10 c3 -5 1 -10 -4 -10
-6 0 -11 5 -11 10 0 6 2 10 4 10 3 0 8 -4 11 -10z m1005 0 c0 -5 -5 -10 -11
-10 -5 0 -7 5 -4 10 3 6 8 10 11 10 2 0 4 -4 4 -10z m-405 -12 c4 -3 2 -9 -3
-12 -5 -3 -15 1 -21 8 -10 11 -9 14 3 12 9 -1 18 -5 21 -8z m-40 -10 c5 4 5 1
1 -5 -4 -8 -2 -13 5 -13 7 0 9 -3 6 -6 -4 -4 -12 -2 -19 4 -14 11 -15 11 -55
13 l-28 1 30 7 c17 4 35 4 41 -1 6 -4 15 -4 19 0z m-111 -12 c-16 -12 -16 -15
-4 -19 8 -3 22 -8 30 -10 8 -3 3 -6 -12 -6 -16 -1 -28 4 -28 12 0 8 -4 7 -10
-3 -8 -13 -10 -12 -10 3 0 9 5 17 11 17 5 0 7 5 4 10 -3 6 4 10 16 10 22 0 22
0 3 -14z m-1061 -22 c-3 -8 -17 -14 -31 -14 -24 0 -24 1 -8 19 20 22 48 18 39
-5z m481 18 c3 -5 -1 -9 -9 -9 -8 0 -12 4 -9 9 3 4 7 8 9 8 2 0 6 -4 9 -8z
m200 0 c2 -4 -5 -9 -17 -9 -17 -2 -19 0 -7 7 18 12 18 12 24 2z m-653 -31 c7
11 9 11 9 -2 0 -9 -8 -23 -17 -30 -9 -8 -14 -9 -10 -3 4 7 -2 12 -18 12 -16 0
-22 -5 -18 -12 4 -6 -1 -5 -10 3 -23 18 -22 20 9 16 16 -1 28 3 32 13 4 12 7
13 10 3 4 -11 6 -11 13 0z m281 -15 c7 4 8 2 4 -5 -10 -15 -26 -4 -25 17 1 15
2 15 6 -1 2 -9 9 -14 15 -11z m93 14 c3 -5 2 -10 -4 -10 -5 0 -13 5 -16 10 -3
6 -2 10 4 10 5 0 13 -4 16 -10z m53 -7 c-5 -7 -14 -10 -19 -7 -16 10 -9 23 10
21 15 -1 17 -4 9 -14z m85 10 c-7 -2 -21 -2 -30 0 -10 3 -4 5 12 5 17 0 24 -2
18 -5z m270 0 c-7 -2 -19 -2 -25 0 -7 3 -2 5 12 5 14 0 19 -2 13 -5z m-928
-43 c3 -5 1 -10 -4 -10 -6 0 -11 5 -11 10 0 6 2 10 4 10 3 0 8 -4 11 -10z
m175 -35 c0 -2 -9 -3 -19 -2 -11 0 -18 5 -15 9 4 6 34 0 34 -7z"/>
<path d="M920 3956 c0 -2 8 -10 18 -17 15 -13 16 -12 3 4 -13 16 -21 21 -21
13z"/>
<path d="M1905 3950 c-3 -5 -3 -10 2 -10 4 0 2 -4 -6 -9 -10 -7 -6 -9 13 -8
22 2 24 4 11 13 -8 6 -12 14 -8 17 3 4 4 7 0 7 -3 0 -9 -4 -12 -10z"/>
<path d="M2022 3953 c2 -6 -8 -20 -22 -33 l-25 -22 30 19 c32 20 65 24 64 8 0
-6 -8 -9 -17 -8 -10 2 -12 0 -4 -3 10 -5 9 -9 -4 -18 -15 -12 -14 -13 7 -11
13 1 23 6 22 11 -1 5 3 14 8 20 10 12 -13 39 -24 27 -4 -3 -14 0 -22 7 -9 7
-15 9 -13 3z"/>
<path d="M2122 3933 c12 -15 32 -18 23 -3 -3 6 4 10 17 10 18 0 20 -2 8 -10
-12 -8 -10 -10 10 -11 14 -1 30 0 35 1 6 1 20 3 32 4 12 1 26 6 30 11 4 6 4 7
-1 3 -5 -4 -16 -2 -24 5 -12 9 -16 9 -19 0 -3 -7 -9 -13 -14 -13 -6 0 -8 4 -5
8 3 5 -19 8 -49 8 -44 0 -52 -2 -43 -13z"/>
<path d="M1196 3928 c5 -7 9 -17 9 -22 0 -5 10 -13 23 -17 15 -6 21 -5 17 1
-3 6 -14 10 -23 10 -12 0 -13 3 -5 8 9 6 6 11 -8 21 -17 10 -20 10 -13 -1z"/>
<path d="M1159 3913 c-13 -16 -12 -17 4 -4 9 7 17 15 17 17 0 8 -8 3 -21 -13z"/>
<path d="M2436 3922 c-2 -4 4 -8 14 -8 10 0 16 4 14 8 -3 4 -9 8 -14 8 -5 0
-11 -4 -14 -8z"/>
<path d="M925 3910 c-3 -6 1 -7 9 -4 18 7 21 14 7 14 -6 0 -13 -4 -16 -10z"/>
<path d="M2098 3903 c7 -3 16 -2 19 1 4 3 -2 6 -13 5 -11 0 -14 -3 -6 -6z"/>
<path d="M796 3881 c-11 -12 -14 -21 -7 -26 6 -3 12 -4 12 -1 1 3 2 9 3 14 1
4 5 13 9 20 12 18 2 15 -17 -7z"/>
<path d="M948 3893 c6 -2 9 -10 6 -15 -4 -7 -2 -8 5 -4 13 9 5 26 -12 25 -9 0
-8 -2 1 -6z"/>
<path d="M1079 3893 c0 -4 -2 -16 -4 -25 -4 -22 2 -23 22 -3 8 8 19 12 25 9 6
-4 9 -1 6 7 -5 15 -48 26 -49 12z"/>
<path d="M1770 3896 c0 -2 7 -7 16 -10 8 -3 12 -2 9 4 -6 10 -25 14 -25 6z"/>
<path d="M1341 3876 c-8 -10 -9 -16 -1 -21 5 -3 13 1 16 10 9 22 -1 29 -15 11z"/>
<path d="M900 3864 c-11 -12 -10 -18 3 -31 15 -15 17 -15 23 1 5 14 9 15 15 4
7 -11 9 -11 9 0 0 8 -9 16 -20 19 -11 3 -17 9 -14 14 9 15 -3 10 -16 -7z"/>
<path d="M710 3860 c-23 -7 -23 -8 -3 -9 12 -1 25 4 28 9 3 6 5 10 3 9 -2 -1
-14 -5 -28 -9z"/>
<path d="M1585 3860 c-3 -5 -1 -10 4 -10 6 0 11 5 11 10 0 6 -2 10 -4 10 -3 0
-8 -4 -11 -10z"/>
<path d="M544 3848 c-4 -7 -4 -10 1 -6 4 4 14 3 21 -3 13 -10 32 6 20 18 -3 4
-6 1 -6 -7 0 -10 -3 -10 -14 -1 -11 9 -16 9 -22 -1z"/>
<path d="M1630 3844 c-18 -10 -20 -14 -8 -14 9 0 20 5 23 10 5 8 12 7 23 -2
15 -12 16 -11 3 5 -7 9 -14 17 -15 16 0 -1 -12 -7 -26 -15z"/>
<path d="M503 3835 c0 -7 6 -11 14 -8 7 3 13 6 13 8 0 2 -6 5 -13 8 -8 3 -14
-1 -14 -8z"/>
<path d="M590 3819 c-25 -7 -25 -7 -2 -8 13 -1 20 -5 17 -11 -3 -5 -2 -10 3
-10 12 0 24 28 14 33 -4 2 -18 1 -32 -4z"/>
<path d="M665 3820 c-3 -5 -1 -10 4 -10 6 0 11 5 11 10 0 6 -2 10 -4 10 -3 0
-8 -4 -11 -10z"/>
<path d="M9230 4775 l-155 -155 95 -95 c52 -52 102 -95 110 -95 9 0 40 25 70
55 30 30 58 55 61 55 12 0 49 -107 72 -205 17 -73 21 -122 21 -260 0 -156 -3
-177 -27 -258 -32 -105 -54 -149 -118 -242 -61 -89 -158 -184 -279 -274 -92
-69 -100 -73 -285 -132 -378 -123 -584 -229 -727 -376 -49 -51 -128 -161 -128
-179 0 -3 -23 -35 -51 -71 -29 -35 -71 -102 -94 -147 -37 -72 -49 -109 -71
-223 -3 -17 -11 -23 -32 -23 -48 0 -52 -12 -52 -167 l0 -143 220 0 220 0 0
139 c0 170 -1 171 -102 171 l-70 0 7 98 c8 114 29 224 56 298 36 96 179 198
499 356 203 101 421 218 450 243 8 7 49 25 90 40 221 82 418 204 546 337 97
101 152 190 196 318 30 88 32 105 32 225 1 106 -3 144 -22 209 -31 108 -101
240 -172 324 -57 69 -58 71 -39 88 37 34 25 63 -68 156 -48 49 -90 88 -93 88
-3 0 -75 -70 -160 -155z m302 -193 c84 -93 156 -229 184 -349 22 -91 22 -240
0 -323 -19 -76 -72 -191 -116 -255 -71 -103 -216 -225 -360 -303 l-65 -35 82
81 c186 185 272 367 289 610 11 162 -21 366 -80 512 l-24 58 21 21 c12 12 24
21 28 21 4 0 22 -17 41 -38z m-802 -1503 c-8 -5 -125 -65 -260 -134 -135 -68
-274 -142 -309 -165 -35 -22 -65 -39 -67 -37 -6 5 88 84 146 124 73 49 267
143 380 184 108 39 136 46 110 28z m-851 -654 c-5 -22 -12 -93 -16 -157 l-6
-118 -49 0 c-32 0 -48 4 -48 13 0 28 30 136 51 182 25 56 69 129 74 123 2 -2
0 -21 -6 -43z"/>
<path d="M8864 4882 c-19 -13 -23 -39 -8 -61 28 -39 74 -20 74 30 0 33 -37 51
-66 31z"/>
<path d="M6713 3395 c-202 -55 -356 -233 -385 -446 -28 -215 84 -430 277 -530
89 -46 159 -63 262 -61 235 3 443 172 498 404 65 276 -98 551 -374 632 -67 20
-206 20 -278 1z m228 -35 c121 -22 253 -112 320 -218 93 -146 92 -368 -1 -515
-102 -162 -303 -251 -490 -218 -232 42 -400 241 -400 476 0 302 275 530 571
475z"/>
<path d="M6723 3251 c-181 -67 -290 -255 -253 -437 64 -315 447 -426 666 -192
62 66 94 140 101 231 13 166 -75 316 -225 385 -77 35 -212 42 -289 13z m278
-44 c74 -36 136 -99 172 -177 27 -55 31 -76 31 -145 0 -69 -4 -90 -30 -145
-37 -79 -97 -140 -172 -177 -50 -25 -68 -28 -152 -28 -85 0 -101 3 -153 30
-75 37 -149 118 -176 190 -28 75 -28 185 0 259 35 95 131 182 239 217 14 5 61
7 106 6 64 -3 93 -9 135 -30z"/>
<path d="M7335 2314 c-22 -19 -115 -83 -207 -142 l-168 -107 0 -112 0 -113
210 0 210 0 0 255 c0 140 -1 255 -2 255 -2 -1 -21 -17 -43 -36z"/>
<path d="M5378 2301 c-157 -52 -259 -169 -289 -332 -24 -129 25 -273 126 -368
243 -230 642 -95 698 236 31 178 -70 366 -239 445 -86 40 -208 48 -296 19z
m237 -35 c277 -84 356 -447 140 -645 -205 -187 -534 -95 -617 173 -59 193 47
402 236 468 63 21 176 23 241 4z"/>
<path d="M6573 1819 l-33 -21 0 -179 0 -179 125 0 125 0 0 200 0 200 -92 0
c-77 0 -99 -4 -125 -21z"/>
<path d="M6152 1551 c-84 -54 -156 -101 -159 -105 -3 -3 81 -6 187 -6 l193 0
-26 20 c-39 31 -62 100 -49 150 5 22 9 40 8 40 0 0 -70 -45 -154 -99z"/>
<path d="M3798 1428 c-20 -5 -55 -25 -77 -45 -60 -51 -83 -103 -89 -195 l-5
-78 -74 0 c-46 0 -85 -6 -103 -15 -27 -14 -80 -73 -80 -88 0 -4 1132 -7 2516
-7 1700 0 2513 3 2509 10 -4 6 -41 30 -83 55 l-77 45 -1947 0 c-1253 0 -1948
3 -1948 10 0 12 138 131 215 184 33 22 101 62 150 88 l90 47 -480 0 c-278 -1
-495 -5 -517 -11z"/>
</g>
</svg>
